<svg xmlns="http://www.w3.org/2000/svg" version="1.1" xmlns:xlink="http://www.w3.org/1999/xlink" xmlns:svgjs="http://svgjs.dev/svgjs" width="128" height="128" viewBox="0 0 128 128"><g transform="matrix(0.8046875,0,0,0.8046875,12.760752631578946,13.44342389412492)"><svg viewBox="0 0 95 93" data-background-color="#ffffff" preserveAspectRatio="xMidYMid meet" height="125" width="128" xmlns="http://www.w3.org/2000/svg" xmlns:xlink="http://www.w3.org/1999/xlink"><g id="tight-bounds" transform="matrix(1,0,0,1,-0.24049999999999727,0.24372675451161285)"><svg viewBox="0 0 95.481 92.51254649097679" height="92.51254649097679" width="95.481"><g><svg viewBox="0 0 95.481 92.51254649097679" height="92.51254649097679" width="95.481"><g><svg viewBox="0 0 95.481 92.51254649097679" height="92.51254649097679" width="95.481"><g id="textblocktransform"><svg viewBox="0 0 95.481 92.51254649097679" height="92.51254649097679" width="95.481" id="textblock"><g><svg viewBox="0 0 95.481 92.51254649097679" height="92.51254649097679" width="95.481"><g><svg viewBox="0 0 95.481 92.51254649097679" height="92.51254649097679" width="95.481"><g><svg xmlns="http://www.w3.org/2000/svg" xmlns:xlink="http://www.w3.org/1999/xlink" version="1.1" x="0" y="0" viewBox="19.482 24.246 52.36500000000001 50.73700000000001" enable-background="new 0 0 100 100" xml:space="preserve" height="92.51254649097679" width="95.481" class="icon-icon-0" data-fill-palette-color="accent" id="icon-0"><g fill="#636365" data-fill-palette-color="accent"><path d="M58.939 74.983c-0.634 0-1.147-0.514-1.147-1.147s0.514-1.147 1.147-1.147c1.397 0 2.535-1.137 2.535-2.534s-1.138-2.534-2.535-2.534H42.113c-2.668 0-4.834-2.166-4.834-4.829 0-2.641 2.13-4.793 4.763-4.829 0.282-0.008 0.57 0.069 0.804 0.263 0.486 0.406 0.555 1.127 0.149 1.613l-0.005 0.006c-0.219 0.262-0.541 0.413-0.882 0.413-1.397 0-2.534 1.137-2.534 2.534s1.137 2.534 2.534 2.534h16.831c2.663 0 4.83 2.166 4.83 4.829S61.603 74.983 58.939 74.983z" fill="#000000" data-fill-palette-color="accent"></path></g><g fill="#636365" data-fill-palette-color="accent"><path d="M58.784 60.251H56.39c-0.634 0-1.147-0.514-1.147-1.147s0.514-1.147 1.147-1.147h2.395c1.397 0 2.534-1.137 2.534-2.534 0-1.396-1.137-2.533-2.534-2.533-0.634 0-1.147-0.514-1.147-1.147s0.514-1.147 1.147-1.147c2.663 0 4.829 2.166 4.829 4.828C63.613 58.085 61.447 60.251 58.784 60.251z" fill="#000000" data-fill-palette-color="accent"></path></g><g fill="#636365" data-fill-palette-color="accent"><path d="M67.019 63.933h-1.396c-0.634 0-1.147-0.514-1.147-1.147s0.514-1.147 1.147-1.147h1.396c1.396 0 2.533-1.137 2.533-2.534s-1.137-2.534-2.533-2.534c-0.634 0-1.147-0.514-1.147-1.147s0.514-1.147 1.147-1.147c2.662 0 4.828 2.166 4.828 4.829S69.681 63.933 67.019 63.933z" fill="#000000" data-fill-palette-color="accent"></path></g><g fill="#636365" data-fill-palette-color="accent"><path d="M56.133 60.251H37.485c-9.927 0-18.003-8.076-18.003-18.003s8.076-18.002 18.004-18.002c6.545 0 12.462 3.482 15.659 9.15 0.983-0.223 1.984-0.335 2.987-0.335 6.67 0 12.309 4.768 13.407 11.336 0.104 0.625-0.317 1.217-0.942 1.321-0.631 0.105-1.217-0.318-1.321-0.942-0.913-5.458-5.6-9.42-11.144-9.42-1.094 0-2.186 0.161-3.244 0.479-0.534 0.161-1.107-0.086-1.356-0.586-2.682-5.371-8.064-8.708-14.046-8.708-8.662 0-15.709 7.046-15.709 15.707s7.047 15.708 15.708 15.708h18.647c0.634 0 1.147 0.514 1.147 1.147S56.767 60.251 56.133 60.251z" fill="#000000" data-fill-palette-color="accent"></path></g></svg></g></svg></g></svg></g></svg></g></svg></g></svg></g><defs></defs></svg><rect width="95.481" height="92.51254649097679" fill="none" stroke="none" visibility="hidden"></rect></g></svg></g></svg>